# xmcd
#
# Track frame offsets:
#	150
#	14747
#	28467
#	50227
#	65502
#	80360
#	94527
#	107525
#
# Disc length: 1749 seconds
#
# Revision: 1
# Processed by: cddbd v1.5.2PL0 Copyright (c) Steve Scherf et al.
# Submitted via: audiograbber 1.83.01
#
DISCID=6906d308
DTITLE=Tami Hunter Holtby - Stand Tall
DYEAR=1994
DGENRE=Country
TTITLE0=Crazy About You
TTITLE1=Catch Me
TTITLE2=Stand Tall
TTITLE3=Treat Me Right
TTITLE4=I Could Be Gone
TTITLE5=Don't Let Go
TTITLE6=Let's Do Some Dancing
TTITLE7=The Moon
EXTD=
EXTT0=
EXTT1=
EXTT2=
EXTT3=
EXTT4=
EXTT5=
EXTT6=
EXTT7=
PLAYORDER=
